<svg width="24" height="27" viewBox="0 0 24 27" fill="none" xmlns="http://www.w3.org/2000/svg">
<path d="M15.3333 21.3333C14.4 21.3333 13.6111 21.0111 12.9667 20.3667C12.3222 19.7222 12 18.9333 12 18C12 17.0667 12.3222 16.2778 12.9667 15.6333C13.6111 14.9889 14.4 14.6667 15.3333 14.6667C16.2667 14.6667 17.0556 14.9889 17.7 15.6333C18.3444 16.2778 18.6667 17.0667 18.6667 18C18.6667 18.9333 18.3444 19.7222 17.7 20.3667C17.0556 21.0111 16.2667 21.3333 15.3333 21.3333ZM2.66667 26.6667C1.93333 26.6667 1.30578 26.4058 0.784 25.884C0.262222 25.3622 0.000888889 24.7342 0 24V5.33333C0 4.6 0.261333 3.97244 0.784 3.45067C1.30667 2.92889 1.93422 2.66756 2.66667 2.66667H4V0H6.66667V2.66667H17.3333V0H20V2.66667H21.3333C22.0667 2.66667 22.6947 2.928 23.2173 3.45067C23.74 3.97333 24.0009 4.60089 24 5.33333V24C24 24.7333 23.7391 25.3613 23.2173 25.884C22.6956 26.4067 22.0676 26.6676 21.3333 26.6667H2.66667ZM2.66667 24H21.3333V10.6667H2.66667V24ZM2.66667 8H21.3333V5.33333H2.66667V8Z" fill="#707070"/>
</svg>
