<svg width="27" height="30" viewBox="0 0 27 30" fill="none" xmlns="http://www.w3.org/2000/svg">
<path d="M13.3333 0C20.6973 0 26.6667 5.96933 26.6667 13.3333C26.6667 20.6973 20.6973 26.6667 13.3333 26.6667C5.96933 26.6667 0 20.6973 0 13.3333C0 5.96933 5.96933 0 13.3333 0ZM13.3333 2.66667C10.5044 2.66667 7.79125 3.79047 5.79086 5.79086C3.79047 7.79125 2.66667 10.5044 2.66667 13.3333C2.66667 16.1623 3.79047 18.8754 5.79086 20.8758C7.79125 22.8762 10.5044 24 13.3333 24C16.1623 24 18.8754 22.8762 20.8758 20.8758C22.8762 18.8754 24 16.1623 24 13.3333C24 10.5044 22.8762 7.79125 20.8758 5.79086C18.8754 3.79047 16.1623 2.66667 13.3333 2.66667ZM13.3333 18.6667C13.687 18.6667 14.0261 18.8071 14.2761 19.0572C14.5262 19.3072 14.6667 19.6464 14.6667 20C14.6667 20.3536 14.5262 20.6928 14.2761 20.9428C14.0261 21.1929 13.687 21.3333 13.3333 21.3333C12.9797 21.3333 12.6406 21.1929 12.3905 20.9428C12.1405 20.6928 12 20.3536 12 20C12 19.6464 12.1405 19.3072 12.3905 19.0572C12.6406 18.8071 12.9797 18.6667 13.3333 18.6667ZM13.3333 6C14.4564 6.00003 15.5443 6.39114 16.4104 7.10613C17.2764 7.82113 17.8664 8.81538 18.0791 9.9181C18.2917 11.0208 18.1138 12.1632 17.5757 13.1489C17.0377 14.1347 16.1732 14.9023 15.1307 15.32C14.9763 15.3768 14.8371 15.4685 14.724 15.588C14.6653 15.6547 14.656 15.74 14.6573 15.828L14.6667 16C14.6663 16.3398 14.5362 16.6667 14.3029 16.9138C14.0696 17.1609 13.7507 17.3096 13.4115 17.3296C13.0722 17.3495 12.7382 17.2391 12.4776 17.021C12.217 16.8029 12.0495 16.4935 12.0093 16.156L12 16V15.6667C12 14.1293 13.24 13.2067 14.1387 12.8453C14.5044 12.6993 14.8235 12.4564 15.0616 12.1426C15.2997 11.8289 15.4478 11.4563 15.4901 11.0647C15.5324 10.6732 15.4673 10.2775 15.3016 9.92019C15.136 9.56287 14.8762 9.25742 14.55 9.03664C14.2239 8.81585 13.8438 8.68807 13.4505 8.66702C13.0573 8.64598 12.6657 8.73245 12.3179 8.91716C11.97 9.10187 11.6791 9.37784 11.4763 9.71544C11.2734 10.053 11.1664 10.4395 11.1667 10.8333C11.1667 11.187 11.0262 11.5261 10.7761 11.7761C10.5261 12.0262 10.187 12.1667 9.83333 12.1667C9.47971 12.1667 9.14057 12.0262 8.89052 11.7761C8.64048 11.5261 8.5 11.187 8.5 10.8333C8.5 9.55145 9.00922 8.32208 9.91565 7.41565C10.8221 6.50922 12.0515 6 13.3333 6Z" fill="#707070"/>
</svg>
