<svg width="32" height="32" viewBox="0 0 32 32" fill="none" xmlns="http://www.w3.org/2000/svg">
<path d="M5.33398 25.3337V13.3337C5.33398 12.9114 5.42865 12.5114 5.61798 12.1337C5.80732 11.7559 6.06821 11.4448 6.40065 11.2003L14.4007 5.20033C14.8673 4.84477 15.4007 4.66699 16.0007 4.66699C16.6007 4.66699 17.134 4.84477 17.6006 5.20033L25.6007 11.2003C25.934 11.4448 26.1953 11.7559 26.3846 12.1337C26.574 12.5114 26.6682 12.9114 26.6673 13.3337V25.3337C26.6673 26.067 26.406 26.695 25.8833 27.2177C25.3607 27.7403 24.7331 28.0012 24.0007 28.0003H20.0007C19.6229 28.0003 19.3064 27.8723 19.0513 27.6163C18.7962 27.3603 18.6682 27.0439 18.6673 26.667V20.0003C18.6673 19.6225 18.5393 19.3061 18.2833 19.051C18.0273 18.7959 17.7109 18.6679 17.334 18.667H14.6673C14.2895 18.667 13.9731 18.795 13.718 19.051C13.4629 19.307 13.3349 19.6234 13.334 20.0003V26.667C13.334 27.0448 13.206 27.3617 12.95 27.6177C12.694 27.8737 12.3775 28.0012 12.0007 28.0003H8.00065C7.26732 28.0003 6.63976 27.7394 6.11798 27.2177C5.59621 26.6959 5.33487 26.0679 5.33398 25.3337Z" fill="#262626"/>
</svg>
