<svg width="78" height="28" viewBox="0 0 78 28" fill="none" xmlns="http://www.w3.org/2000/svg">
<path d="M13.3117 3.89912L10.0985 5.95614C9.2723 4.35965 8.38485 3.68421 7.13018 3.68421C5.96732 3.68421 5.07987 4.51316 5.07987 5.64912C5.07987 9.39474 14.2298 8.90351 14.2298 15.2895C14.2298 19.4956 11.4756 21.9825 7.375 21.9825C3.48859 21.9825 0.673236 19.25 0 15.9649L3.21317 13.9386C3.85581 16.2412 5.14108 18.2982 7.4668 18.2982C9.11929 18.2982 10.2515 17.4693 10.2515 15.5044C10.2515 11.943 1.28527 12.6491 1.28527 5.83333C1.28527 2.57895 3.764 0 7.13018 0C9.97614 0 12.1489 1.41228 13.3117 3.89912Z" fill="#F7D047"/>
<path d="M25.6126 18.3596L26.5001 21.4298C25.6432 21.8289 24.817 21.9825 23.9907 21.9825C20.5021 21.9825 18.3294 20.1096 18.3294 16.2719V9.51754H15.9425V6.26316H18.3294V2.39474L22.124 0V6.26316H26.194V9.51754H22.124V16.2105C22.124 18.114 22.8585 18.7281 24.1437 18.7281C24.664 18.7281 25.0924 18.636 25.6126 18.3596Z" fill="#F7D047"/>
<path d="M32.3591 11.0526L29.1459 10.3158C29.6355 7.76754 31.8695 6.01754 35.0214 6.01754C38.6936 6.01754 41.509 7.55263 41.509 12.4956V21.7368H38.3876L37.9898 19.7719C36.9187 21.0921 35.4498 21.9825 33.2465 21.9825C30.6148 21.9825 28.5645 20.3553 28.5645 17.2851C28.5645 14.2149 31.2574 12.2193 35.1438 12.2193H37.7144V11.5439C37.7144 9.82456 36.4291 9.27193 35.0214 9.27193C33.9504 9.27193 32.8487 9.60965 32.3591 11.0526ZM32.5427 17.2237C32.5427 17.9605 33.0629 18.7281 34.134 18.7281C35.8783 18.7281 37.7144 17.5307 37.7144 15.5351V15.2281H35.1744C33.5526 15.2281 32.5427 15.8421 32.5427 17.2237Z" fill="#F7D047"/>
<path d="M48.7922 21.7368H44.9976V6.26316H48.7922V8.7807C49.8938 6.9693 51.6075 6.01754 53.3518 6.01754C54.025 6.01754 54.6065 6.14035 55.2185 6.32456L54.5147 9.85526C54.0557 9.57895 53.566 9.42544 52.9234 9.42544C50.7201 9.42544 48.7922 11.2368 48.7922 16.2412V21.7368Z" fill="#F7D047"/>
<path d="M57.6934 0H61.488V21.7368H57.6934V0Z" fill="#F7D047"/>
<path d="M63.4336 6.26316H67.2588L70.8392 15.9649L74.2054 6.26316H78L70.0436 28H66.3714L69.0337 20.7544L63.4336 6.26316Z" fill="#F7D047"/>
</svg>
