<svg width="41" height="42" viewBox="0 0 41 42" fill="none" xmlns="http://www.w3.org/2000/svg">
<path fill-rule="evenodd" clip-rule="evenodd" d="M10.3208 12.9645C9.80142 -1.8026 16.7454 -4.33223 25.9134 7.32626C39.8884 2.27304 44.456 8.05348 36.1295 20.3186C45.2858 31.9626 41.1648 38.0635 26.8509 33.9851C18.5348 46.235 11.421 44.2268 10.9008 29.4413C-3.39552 25.368 -3.67186 18.0243 10.3208 12.9645ZM19.1721 24.9252C18.6996 24.6348 18.079 24.7804 17.7862 25.2497C17.4937 25.7193 17.6401 26.3357 18.1127 26.6266C19.9307 27.7452 22.4088 27.6077 24.4419 26.8726C26.471 26.1389 28.4512 24.6656 29.0681 22.6443C29.2291 22.1158 28.9286 21.5577 28.3967 21.3973C27.8647 21.2371 27.303 21.5358 27.1415 22.0643C26.7844 23.234 25.485 24.3662 23.7531 24.9925C22.0255 25.6171 20.2594 25.5943 19.1721 24.9252Z" fill="#F7D047"/>
</svg>
