<svg width="24" height="30" viewBox="0 0 24 30" fill="none" xmlns="http://www.w3.org/2000/svg">
<path d="M12 0L22.956 2.43467C23.2521 2.50049 23.5169 2.66529 23.7067 2.90187C23.8965 3.13846 23.9999 3.43269 24 3.736V17.052C23.9999 18.369 23.6747 19.6656 23.0532 20.8267C22.4317 21.9878 21.5332 22.9775 20.4373 23.708L12 29.3333L3.56267 23.708C2.46703 22.9776 1.56861 21.9881 0.947131 20.8273C0.325648 19.6664 0.000315142 18.3701 0 17.0533V3.736C5.20504e-05 3.43269 0.103517 3.13846 0.293319 2.90187C0.483122 2.66529 0.747916 2.50049 1.044 2.43467L12 0ZM12 2.732L2.66667 4.80533V17.052C2.66668 17.9299 2.88343 18.7943 3.29768 19.5684C3.71193 20.3425 4.31087 21.0023 5.04133 21.4893L12 26.1293L18.9587 21.4893C19.6889 21.0024 20.2878 20.3428 20.702 19.569C21.1162 18.7952 21.3331 17.9311 21.3333 17.0533V4.80533L12 2.732ZM17.936 9.62933L19.8227 11.5147L11.3373 20L5.68 14.3427L7.56533 12.4573L11.336 16.228L17.936 9.62933Z" fill="#707070"/>
</svg>
