<svg width="24" height="24" viewBox="0 0 24 24" fill="none" xmlns="http://www.w3.org/2000/svg">
<path d="M1.25 19.9163C1.25 18.5019 1.8119 17.1453 2.8121 16.1451C3.81229 15.1449 5.16885 14.583 6.58333 14.583H17.25C18.6645 14.583 20.021 15.1449 21.0212 16.1451C22.0214 17.1453 22.5833 18.5019 22.5833 19.9163C22.5833 20.6236 22.3024 21.3019 21.8023 21.802C21.3022 22.3021 20.6239 22.583 19.9167 22.583H3.91667C3.20942 22.583 2.53115 22.3021 2.03105 21.802C1.53095 21.3019 1.25 20.6236 1.25 19.9163Z" stroke="#707070" stroke-width="2.5" stroke-linejoin="round"/>
<path d="M11.916 9.25C14.1252 9.25 15.916 7.45914 15.916 5.25C15.916 3.04086 14.1252 1.25 11.916 1.25C9.70688 1.25 7.91602 3.04086 7.91602 5.25C7.91602 7.45914 9.70688 9.25 11.916 9.25Z" stroke="#707070" stroke-width="2.5"/>
</svg>
