<svg width="32" height="32" viewBox="0 0 32 32" fill="none" xmlns="http://www.w3.org/2000/svg">
<path d="M16.5333 4C17.9266 4.00087 19.289 4.4105 20.4518 5.17816C21.6145 5.94581 22.5265 7.03775 23.0747 8.31867C24.0027 8.42329 24.901 8.70967 25.7183 9.16146C26.5357 9.61325 27.256 10.2216 27.8382 10.9518C28.4204 11.682 28.8531 12.5197 29.1116 13.4171C29.3701 14.3145 29.4493 15.254 29.3447 16.182C29.24 17.11 28.9537 18.0083 28.5019 18.8257C28.0501 19.643 27.4417 20.3633 26.7116 20.9456C25.9814 21.5278 25.1437 21.9605 24.2463 22.219C23.3489 22.4774 22.4093 22.5566 21.4813 22.452C20.806 23.6467 19.7209 24.5564 18.4267 25.013C17.1326 25.4696 15.7169 25.4423 14.4413 24.936L9.33333 28V23.8213C8.81153 23.7007 8.3237 23.4638 7.90624 23.1283C7.48878 22.7928 7.15246 22.3673 6.92237 21.8837C6.69229 21.4001 6.57437 20.8707 6.57742 20.3352C6.58048 19.7996 6.70442 19.2716 6.94 18.7907C5.667 18.0583 4.68459 16.9105 4.15761 15.5397C3.63062 14.1689 3.59111 12.6585 4.04571 11.262C4.50032 9.86556 5.42137 8.66791 6.65434 7.87003C7.88731 7.07215 9.35718 6.72259 10.8173 6.88C11.4785 5.98635 12.34 5.26026 13.3328 4.76007C14.3255 4.25988 15.4217 3.99955 16.5333 4Z" stroke="#707070" stroke-width="2" stroke-linecap="round" stroke-linejoin="round"/>
</svg>
