<svg width="32" height="32" viewBox="0 0 32 32" fill="none" xmlns="http://www.w3.org/2000/svg">
<path fill-rule="evenodd" clip-rule="evenodd" d="M12.8665 5.33366L8.71846 14.667H13.3145C14.2345 14.667 14.8825 15.567 14.5918 16.4403L12.3838 23.063L22.1145 13.3337H18.6878C18.4582 13.3336 18.2325 13.2749 18.032 13.163C17.8315 13.0512 17.663 12.89 17.5423 12.6947C17.4217 12.4993 17.353 12.2764 17.3428 12.0471C17.3325 11.8178 17.3811 11.5896 17.4838 11.3843L20.5091 5.33366H12.8665ZM10.7785 3.46699C10.9945 2.98033 11.4758 2.66699 12.0091 2.66699H22.6451C23.6451 2.66699 24.2971 3.72033 23.8491 4.61633L20.8238 10.667H25.3011C26.5011 10.667 27.1011 12.1177 26.2531 12.9657L10.3158 28.903C9.31046 29.9083 7.63579 28.8737 8.08646 27.5257L11.4838 17.3337H6.68646C6.46212 17.3337 6.24134 17.2776 6.04416 17.1706C5.84699 17.0636 5.67967 16.909 5.55741 16.7209C5.43514 16.5328 5.36181 16.3172 5.34406 16.0935C5.32632 15.8699 5.36472 15.6454 5.45579 15.4403L10.7785 3.46699Z" fill="#707070"/>
</svg>
