<svg width="32" height="16" viewBox="0 0 32 16" fill="none" xmlns="http://www.w3.org/2000/svg">
<path d="M0 16V13.9C0 12.9444 0.488889 12.1667 1.46667 11.5667C2.44444 10.9667 3.73333 10.6667 5.33333 10.6667C5.62222 10.6667 5.9 10.6724 6.16667 10.684C6.43333 10.6956 6.68889 10.7231 6.93333 10.7667C6.62222 11.2333 6.38889 11.7222 6.23333 12.2333C6.07778 12.7444 6 13.2778 6 13.8333V16H0ZM8 16V13.8333C8 13.1222 8.19467 12.472 8.584 11.8827C8.97333 11.2933 9.52311 10.7769 10.2333 10.3333C10.9436 9.88978 11.7938 9.55645 12.784 9.33333C13.7742 9.11022 14.8462 8.99911 16 9C17.1778 9 18.2613 9.11111 19.2507 9.33333C20.24 9.55556 21.0898 9.88889 21.8 10.3333C22.5102 10.7778 23.0547 11.2947 23.4333 11.884C23.812 12.4733 24.0009 13.1231 24 13.8333V16H8ZM26 16V13.8333C26 13.2556 25.928 12.7111 25.784 12.2C25.64 11.6889 25.4231 11.2111 25.1333 10.7667C25.3778 10.7222 25.628 10.6947 25.884 10.684C26.14 10.6733 26.4009 10.6676 26.6667 10.6667C28.2667 10.6667 29.5556 10.9613 30.5333 11.5507C31.5111 12.14 32 12.9231 32 13.9V16H26ZM10.8333 13.3333H21.2C20.9778 12.8889 20.3609 12.5 19.3493 12.1667C18.3378 11.8333 17.2213 11.6667 16 11.6667C14.7787 11.6667 13.6622 11.8333 12.6507 12.1667C11.6391 12.5 11.0333 12.8889 10.8333 13.3333ZM5.33333 9.33333C4.6 9.33333 3.97244 9.07244 3.45067 8.55067C2.92889 8.02889 2.66756 7.40089 2.66667 6.66667C2.66667 5.91111 2.928 5.27778 3.45067 4.76667C3.97333 4.25556 4.60089 4 5.33333 4C6.08889 4 6.72222 4.25556 7.23333 4.76667C7.74444 5.27778 8 5.91111 8 6.66667C8 7.4 7.74444 8.028 7.23333 8.55067C6.72222 9.07333 6.08889 9.33422 5.33333 9.33333ZM26.6667 9.33333C25.9333 9.33333 25.3058 9.07244 24.784 8.55067C24.2622 8.02889 24.0009 7.40089 24 6.66667C24 5.91111 24.2613 5.27778 24.784 4.76667C25.3067 4.25556 25.9342 4 26.6667 4C27.4222 4 28.0556 4.25556 28.5667 4.76667C29.0778 5.27778 29.3333 5.91111 29.3333 6.66667C29.3333 7.4 29.0778 8.028 28.5667 8.55067C28.0556 9.07333 27.4222 9.33422 26.6667 9.33333ZM16 8C14.8889 8 13.9444 7.61111 13.1667 6.83333C12.3889 6.05556 12 5.11111 12 4C12 2.86667 12.3889 1.91689 13.1667 1.15067C13.9444 0.384444 14.8889 0.000888889 16 0C17.1333 0 18.0836 0.383555 18.8507 1.15067C19.6178 1.91778 20.0009 2.86756 20 4C20 5.11111 19.6169 6.05556 18.8507 6.83333C18.0844 7.61111 17.1342 8 16 8ZM16 5.33333C16.3778 5.33333 16.6947 5.20533 16.9507 4.94933C17.2067 4.69333 17.3342 4.37689 17.3333 4C17.3324 3.62311 17.2044 3.30667 16.9493 3.05067C16.6942 2.79467 16.3778 2.66667 16 2.66667C15.6222 2.66667 15.3058 2.79467 15.0507 3.05067C14.7956 3.30667 14.6676 3.62311 14.6667 4C14.6658 4.37689 14.7938 4.69378 15.0507 4.95067C15.3076 5.20756 15.624 5.33511 16 5.33333Z" fill="#707070"/>
</svg>
